<?xml version="1.0" encoding="UTF-8" standalone="no"?>
<!-- Created with Inkscape (http://www.inkscape.org/) -->
<svg id="svg5331" xmlns:rdf="http://www.w3.org/1999/02/22-rdf-syntax-ns#" xmlns="http://www.w3.org/2000/svg" height="113.14" width="434.37" version="1.1" xmlns:cc="http://creativecommons.org/ns#" xmlns:dc="http://purl.org/dc/elements/1.1/">
 <metadata id="metadata5336">
  <rdf:RDF>
   <cc:Work rdf:about="">
    <dc:format>image/svg+xml</dc:format>
    <dc:type rdf:resource="http://purl.org/dc/dcmitype/StillImage"/>
    <dc:title/>
   </cc:Work>
  </rdf:RDF>
 </metadata>
 <path id="path5325" d="m113.14,56.569c0,31.242-25.327,56.569-56.568,56.569-31.245,0-56.572-25.329-56.572-56.571s25.327-56.569,56.569-56.569,56.568,25.327,56.568,56.569z" fill="#2a77c7"/>
 <path id="path5327" d="m273.75,56.569c0,31.242-25.327,56.569-56.568,56.569-31.242,0-56.569-25.327-56.569-56.569s25.327-56.569,56.569-56.569,56.568,25.327,56.568,56.569z" fill="#2a77c7"/>
 <path id="path5329" d="m434.37,56.569c0,31.242-25.327,56.569-56.568,56.569-31.242,0-56.569-25.327-56.569-56.569s25.327-56.569,56.569-56.569,56.568,25.327,56.568,56.569z" fill="#2a77c7"/>
</svg>
