<!-- Created with Inkscape (http://www.inkscape.org/) -->
<svg id="svg3842" xmlns:rdf="http://www.w3.org/1999/02/22-rdf-syntax-ns#" xmlns="http://www.w3.org/2000/svg" height="39.145" width="132.12" version="1.1" xmlns:cc="http://creativecommons.org/ns#" xmlns:xlink="http://www.w3.org/1999/xlink" xmlns:dc="http://purl.org/dc/elements/1.1/">
 <defs id="defs3844">
  <linearGradient id="linearGradient4170" y2="16.508" xlink:href="#SVGID_1_" gradientUnits="userSpaceOnUse" x2="5.017" gradientTransform="matrix(1,0,0,-1,0,42)" y1="33.29" x1="21.8"/>
  <linearGradient id="linearGradient4172" y2="21.999" xlink:href="#SVGID_2_" gradientUnits="userSpaceOnUse" x2="9.637" gradientTransform="matrix(1,0,0,-1,0,42)" y1="21.999" x1="33.834"/>
  <linearGradient id="linearGradient4174" y2="-3.054" xlink:href="#SVGID_3_" gradientUnits="userSpaceOnUse" x2="2.069" gradientTransform="matrix(1,0,0,-1,0,42)" y1="19.704" x1="24.827"/>
  <linearGradient id="linearGradient4176" y2="31.661" xlink:href="#SVGID_4_" gradientUnits="userSpaceOnUse" x2="17.46" gradientTransform="matrix(1,0,0,-1,0,42)" y1="41.824" x1="7.297"/>
 </defs>
 <metadata id="metadata3847">
  <rdf:RDF>
   <cc:Work rdf:about="">
    <dc:format>image/svg+xml</dc:format>
    <dc:type rdf:resource="http://purl.org/dc/dcmitype/StillImage"/>
    <dc:title/>
   </cc:Work>
  </rdf:RDF>
 </metadata>
 <g id="layer1" transform="translate(1208.9861,-661.53958)">
  <g id="g4135" transform="matrix(0.97863035,0,0,0.97863035,-1208.9861,661.53958)">
   <path id="path4066" d="M130,40h-125c-2.8,0-5-2.2-5-5v-30c0-2.8,2.2-5,5-5h125c2.8,0,5,2.2,5,5v30c0,2.8-2.2,5-5,5z"/>
   <path id="path4068" class="st0" fill="#a6a6a6" d="m130,0.8c2.3,0,4.2,1.9,4.2,4.2v30c0,2.3-1.9,4.2-4.2,4.2h-125c-2.3,0-4.2-1.9-4.2-4.2v-30c0-2.3,1.9-4.2,4.2-4.2h125m0-0.8h-125c-2.8,0-5,2.3-5,5v30c0,2.8,2.2,5,5,5h125c2.8,0,5-2.2,5-5v-30c0-2.7-2.2-5-5-5z"/>
   <path id="path4070" d="m47.4,10.2c0,0.8-0.2,1.5-0.7,2-0.6,0.6-1.3,0.9-2.2,0.9s-1.6-0.3-2.2-0.9-0.9-1.3-0.9-2.2,0.3-1.6,0.9-2.2,1.3-0.9,2.2-0.9c0.4,0,0.8,0.1,1.2,0.3s0.7,0.4,0.9,0.7l-0.5,0.5c-0.4-0.5-0.9-0.7-1.6-0.7-0.6,0-1.2,0.2-1.6,0.7-0.5,0.4-0.7,1-0.7,1.7s0.2,1.3,0.7,1.7,1,0.7,1.6,0.7c0.7,0,1.2-0.2,1.7-0.7,0.3-0.3,0.5-0.7,0.5-1.2h-2.2v-0.8h2.9v0.4zm4.6-2.5h-2.7v1.9h2.5v0.7h-2.5v1.9h2.7v0.8h-3.5v-6h3.5v0.7zm3.3,5.3h-0.8v-5.3h-1.7v-0.7h4.2v0.7h-1.7v5.3zm4.6,0v-6h0.8v6h-0.8zm4.2,0h-0.8v-5.3h-1.7v-0.7h4.1v0.7h-1.7v5.3zm9.5-0.8c-0.6,0.6-1.3,0.9-2.2,0.9s-1.6-0.3-2.2-0.9-0.9-1.3-0.9-2.2,0.3-1.6,0.9-2.2,1.3-0.9,2.2-0.9,1.6,0.3,2.2,0.9,0.9,1.3,0.9,2.2-0.3,1.6-0.9,2.2zm-3.8-0.5c0.4,0.4,1,0.7,1.6,0.7s1.2-0.2,1.6-0.7c0.4-0.4,0.7-1,0.7-1.7s-0.2-1.3-0.7-1.7c-0.4-0.4-1-0.7-1.6-0.7s-1.2,0.2-1.6,0.7c-0.4,0.4-0.7,1-0.7,1.7s0.2,1.3,0.7,1.7zm5.8,1.3v-6h0.9l2.9,4.7v-4.7h0.8v6h-0.8l-3.1-4.9v4.9h-0.7z" stroke="#FFF" stroke-miterlimit="10" stroke-width="0.2" class="st1" fill="#FFF"/>
   <path id="path4072" class="st2" fill="#FFF" d="m68.1,21.8c-2.4,0-4.3,1.8-4.3,4.3,0,2.4,1.9,4.3,4.3,4.3s4.3-1.8,4.3-4.3c0-2.6-1.9-4.3-4.3-4.3zm0,6.8c-1.3,0-2.4-1.1-2.4-2.6s1.1-2.6,2.4-2.6,2.4,1,2.4,2.6c0,1.5-1.1,2.6-2.4,2.6zm-9.3-6.8c-2.4,0-4.3,1.8-4.3,4.3,0,2.4,1.9,4.3,4.3,4.3s4.3-1.8,4.3-4.3c0-2.6-1.9-4.3-4.3-4.3zm0,6.8c-1.3,0-2.4-1.1-2.4-2.6s1.1-2.6,2.4-2.6,2.4,1,2.4,2.6c0,1.5-1.1,2.6-2.4,2.6zm-11.1-5.5v1.8h4.3c-0.1,1-0.5,1.8-1,2.3-0.6,0.6-1.6,1.3-3.3,1.3-2.7,0-4.7-2.1-4.7-4.8s2.1-4.8,4.7-4.8c1.4,0,2.5,0.6,3.3,1.3l1.3-1.3c-1.1-1-2.5-1.8-4.5-1.8-3.6,0-6.7,3-6.7,6.6s3.1,6.6,6.7,6.6c2,0,3.4-0.6,4.6-1.9,1.2-1.2,1.6-2.9,1.6-4.2,0-0.4,0-0.8-0.1-1.1h-6.2zm45.4,1.4c-0.4-1-1.4-2.7-3.6-2.7s-4,1.7-4,4.3c0,2.4,1.8,4.3,4.2,4.3,1.9,0,3.1-1.2,3.5-1.9l-1.4-1c-0.5,0.7-1.1,1.2-2.1,1.2s-1.6-0.4-2.1-1.3l5.7-2.4-0.2-0.5zm-5.8,1.4c0-1.6,1.3-2.5,2.2-2.5,0.7,0,1.4,0.4,1.6,0.9l-3.8,1.6zm-4.7,4.1h1.9v-12.5h-1.9v12.5zm-3-7.3c-0.5-0.5-1.3-1-2.3-1-2.1,0-4.1,1.9-4.1,4.3s1.9,4.2,4.1,4.2c1,0,1.8-0.5,2.2-1h0.1v0.6c0,1.6-0.9,2.5-2.3,2.5-1.1,0-1.9-0.8-2.1-1.5l-1.6,0.7c0.5,1.1,1.7,2.5,3.8,2.5,2.2,0,4-1.3,4-4.4v-7.6h-1.8v0.7zm-2.2,5.9c-1.3,0-2.4-1.1-2.4-2.6s1.1-2.6,2.4-2.6,2.3,1.1,2.3,2.6-1,2.6-2.3,2.6zm24.4-11.1h-4.5v12.5h1.9v-4.7h2.6c2.1,0,4.1-1.5,4.1-3.9s-2-3.9-4.1-3.9zm0.1,6h-2.7v-4.3h2.7c1.4,0,2.2,1.2,2.2,2.1-0.1,1.1-0.9,2.2-2.2,2.2zm11.5-1.8c-1.4,0-2.8,0.6-3.3,1.9l1.7,0.7c0.4-0.7,1-0.9,1.7-0.9,1,0,1.9,0.6,2,1.6v0.1c-0.3-0.2-1.1-0.5-1.9-0.5-1.8,0-3.6,1-3.6,2.8,0,1.7,1.5,2.8,3.1,2.8,1.3,0,1.9-0.6,2.4-1.2h0.1v1h1.8v-4.8c-0.2-2.2-1.9-3.5-4-3.5zm-0.2,6.9c-0.6,0-1.5-0.3-1.5-1.1,0-1,1.1-1.3,2-1.3,0.8,0,1.2,0.2,1.7,0.4-0.2,1.2-1.2,2-2.2,2zm10.5-6.6-2.1,5.4h-0.1l-2.2-5.4h-2l3.3,7.6-1.9,4.2h1.9l5.1-11.8h-2zm-16.8,8h1.9v-12.5h-1.9v12.5z"/>
   <g id="g4074">
    <linearGradient id="SVGID_1_" y2="16.508" gradientUnits="userSpaceOnUse" y1="33.29" gradientTransform="matrix(1,0,0,-1,0,42)" x2="5.017" x1="21.8">
     <stop id="stop4077" stop-color="#00a0ff" offset="0"/>
     <stop id="stop4079" stop-color="#00a1ff" offset="0.007"/>
     <stop id="stop4081" stop-color="#00beff" offset="0.26"/>
     <stop id="stop4083" stop-color="#00d2ff" offset="0.512"/>
     <stop id="stop4085" stop-color="#00dfff" offset="0.76"/>
     <stop id="stop4087" stop-color="#00e3ff" offset="1"/>
    </linearGradient>
    <path id="path4089" class="st3" fill="url(#linearGradient4170)" d="M10.4,7.5c-0.3,0.3-0.4,0.8-0.4,1.4v22.1c0,0.6,0.2,1.1,0.5,1.4l0.1,0.1,12.4-12.4v-0.2l-12.6-12.4z"/>
    <linearGradient id="SVGID_2_" y2="21.999" gradientUnits="userSpaceOnUse" y1="21.999" gradientTransform="matrix(1,0,0,-1,0,42)" x2="9.637" x1="33.834">
     <stop id="stop4092" stop-color="#ffe000" offset="0"/>
     <stop id="stop4094" stop-color="#ffbd00" offset="0.409"/>
     <stop id="stop4096" stop-color="orange" offset="0.775"/>
     <stop id="stop4098" stop-color="#ff9c00" offset="1"/>
    </linearGradient>
    <path id="path4100" class="st4" fill="url(#linearGradient4172)" d="m27,24.3-4.1-4.1v-0.3l4.1-4.1,0.1,0.1,4.9,2.8c1.4,0.8,1.4,2.1,0,2.9l-5,2.7z"/>
    <linearGradient id="SVGID_3_" y2="-3.054" gradientUnits="userSpaceOnUse" y1="19.704" gradientTransform="matrix(1,0,0,-1,0,42)" x2="2.069" x1="24.827">
     <stop id="stop4103" stop-color="#ff3a44" offset="0"/>
     <stop id="stop4105" stop-color="#c31162" offset="1"/>
    </linearGradient>
    <path id="path4107" class="st5" fill="url(#linearGradient4174)" d="M27.1,24.2,22.9,20,10.4,32.5c0.5,0.5,1.2,0.5,2.1,0.1l14.6-8.4"/>
    <linearGradient id="SVGID_4_" y2="31.661" gradientUnits="userSpaceOnUse" y1="41.824" gradientTransform="matrix(1,0,0,-1,0,42)" x2="17.46" x1="7.297">
     <stop id="stop4110" stop-color="#32a071" offset="0"/>
     <stop id="stop4112" stop-color="#2da771" offset="0.069"/>
     <stop id="stop4114" stop-color="#15cf74" offset="0.476"/>
     <stop id="stop4116" stop-color="#06e775" offset="0.801"/>
     <stop id="stop4118" stop-color="#00f076" offset="1"/>
    </linearGradient>
    <path id="path4120" class="st6" fill="url(#linearGradient4176)" d="M27.1,15.8,12.5,7.5c-0.9-0.5-1.6-0.4-2.1,0.1l12.5,12.4,4.2-4.2z"/>
    <path id="path4122" opacity="0.2" style="enable-background:new;" d="m27,24.1-14.5,8.2c-0.8,0.5-1.5,0.4-2,0l-0.1,0.1,0.1,0.1c0.5,0.4,1.2,0.5,2,0l14.5-8.4z" class="st7"/>
    <path id="path4124" opacity="0.12000002" style="enable-background:new;" d="M10.4,32.3c-0.3-0.3-0.4-0.8-0.4-1.4v0.1c0,0.6,0.2,1.1,0.5,1.4v-0.1h-0.1zm21.6-11-5,2.8,0.1,0.1,4.9-2.8c0.7-0.4,1-0.9,1-1.4,0,0.5-0.4,0.9-1,1.3z" class="st8"/>
    <path id="path4126" opacity="0.25" style="enable-background:new;" d="M12.5,7.6,32,18.7c0.6,0.4,1,0.8,1,1.3,0-0.5-0.3-1-1-1.4l-19.5-11.1c-1.4-0.8-2.5-0.2-2.5,1.4v0.1c0-1.5,1.1-2.2,2.5-1.4z" class="st9" fill="#FFF"/>
   </g>
  </g>
 </g>
 <style id="style4064">.st0{fill:#a6a6a6}.st1{stroke:#fff;stroke-width:.2;stroke-miterlimit:10}.st1,.st2{fill:#fff}.st3{fill:url(#SVGID_1_)}.st4{fill:url(#SVGID_2_)}.st5{fill:url(#SVGID_3_)}.st6{fill:url(#SVGID_4_)}.st7,.st8,.st9{opacity:.2;enable-background:new}.st8,.st9{opacity:.12}.st9{opacity:.25;fill:#fff}</style>
</svg>
