<!-- Created with Inkscape (http://www.inkscape.org/) -->
<svg id="svg3842" xmlns:rdf="http://www.w3.org/1999/02/22-rdf-syntax-ns#" xmlns="http://www.w3.org/2000/svg" height="39.145" width="132.12" version="1.1" xmlns:cc="http://creativecommons.org/ns#" xmlns:xlink="http://www.w3.org/1999/xlink" xmlns:dc="http://purl.org/dc/elements/1.1/">
 <defs id="defs3844">
  <linearGradient id="SVGID_1_" x1="21.8" gradientUnits="userSpaceOnUse" y1="33.29" gradientTransform="matrix(1,0,0,-1,0,42)" x2="5.017" y2="16.508">
   <stop id="stop4077" stop-color="#00a0ff" offset="0"/>
   <stop id="stop4079" stop-color="#00a1ff" offset="0.007"/>
   <stop id="stop4081" stop-color="#00beff" offset="0.26"/>
   <stop id="stop4083" stop-color="#00d2ff" offset="0.512"/>
   <stop id="stop4085" stop-color="#00dfff" offset="0.76"/>
   <stop id="stop4087" stop-color="#00e3ff" offset="1"/>
  </linearGradient>
  <linearGradient id="SVGID_2_" x1="33.834" gradientUnits="userSpaceOnUse" y1="21.999" gradientTransform="matrix(1,0,0,-1,0,42)" x2="9.637" y2="21.999">
   <stop id="stop4092" stop-color="#ffe000" offset="0"/>
   <stop id="stop4094" stop-color="#ffbd00" offset="0.409"/>
   <stop id="stop4096" stop-color="orange" offset="0.775"/>
   <stop id="stop4098" stop-color="#ff9c00" offset="1"/>
  </linearGradient>
  <linearGradient id="SVGID_3_" x1="24.827" gradientUnits="userSpaceOnUse" y1="19.704" gradientTransform="matrix(1,0,0,-1,0,42)" x2="2.069" y2="-3.054">
   <stop id="stop4103" stop-color="#ff3a44" offset="0"/>
   <stop id="stop4105" stop-color="#c31162" offset="1"/>
  </linearGradient>
  <linearGradient id="SVGID_4_" x1="7.297" gradientUnits="userSpaceOnUse" y1="41.824" gradientTransform="matrix(1,0,0,-1,0,42)" x2="17.46" y2="31.661">
   <stop id="stop4110" stop-color="#32a071" offset="0"/>
   <stop id="stop4112" stop-color="#2da771" offset="0.069"/>
   <stop id="stop4114" stop-color="#15cf74" offset="0.476"/>
   <stop id="stop4116" stop-color="#06e775" offset="0.801"/>
   <stop id="stop4118" stop-color="#00f076" offset="1"/>
  </linearGradient>
  <linearGradient id="linearGradient3153" y2="16.508" xlink:href="#SVGID_1_" gradientUnits="userSpaceOnUse" x2="5.017" gradientTransform="matrix(0.97863035,0,0,-0.97863035,0,41.102475)" y1="33.29" x1="21.8"/>
  <linearGradient id="linearGradient3155" y2="21.999" xlink:href="#SVGID_2_" gradientUnits="userSpaceOnUse" x2="9.637" gradientTransform="matrix(0.97863035,0,0,-0.97863035,0,41.102475)" y1="21.999" x1="33.834"/>
  <linearGradient id="linearGradient3157" y2="-3.054" xlink:href="#SVGID_3_" gradientUnits="userSpaceOnUse" x2="2.069" gradientTransform="matrix(0.97863035,0,0,-0.97863035,0,41.102475)" y1="19.704" x1="24.827"/>
  <linearGradient id="linearGradient3159" y2="31.661" xlink:href="#SVGID_4_" gradientUnits="userSpaceOnUse" x2="17.46" gradientTransform="matrix(0.97863035,0,0,-0.97863035,0,41.102475)" y1="41.824" x1="7.297"/>
 </defs>
 <metadata id="metadata3847">
  <rdf:RDF>
   <cc:Work rdf:about="">
    <dc:format>image/svg+xml</dc:format>
    <dc:type rdf:resource="http://purl.org/dc/dcmitype/StillImage"/>
    <dc:title/>
   </cc:Work>
  </rdf:RDF>
 </metadata>
 <g id="g3141">
  <path id="path4066" d="M127.22,39.145h-122.33c-2.7402,0-4.8932-2.153-4.8932-4.893v-29.359c0-2.7402,2.153-4.8932,4.8932-4.8932h122.33c2.7402,0,4.8932,2.153,4.8932,4.8932v29.359c0,2.7402-2.153,4.8932-4.8932,4.8932z"/>
  <path id="path4070" d="m46.387,9.982c0,0.7829-0.19573,1.4679-0.68504,1.9573-0.58718,0.58718-1.2722,0.88077-2.153,0.88077-0.88077,0-1.5658-0.29359-2.153-0.88077-0.58718-0.58718-0.88077-1.2722-0.88077-2.153,0-0.88077,0.29359-1.5658,0.88077-2.153,0.58718-0.58718,1.2722-0.88077,2.153-0.88077,0.39145,0,0.7829,0.097863,1.1744,0.29359,0.39145,0.19573,0.68504,0.39145,0.88077,0.68504l-0.489,0.4897c-0.392-0.4893-0.881-0.685-1.566-0.685-0.58718,0-1.1744,0.19573-1.5658,0.68504-0.48932,0.39145-0.68504,0.97863-0.68504,1.6637,0,0.68504,0.19573,1.2722,0.68504,1.6637,0.48932,0.39145,0.97863,0.68504,1.5658,0.68504,0.68504,0,1.1744-0.19573,1.6637-0.68504,0.29359-0.29359,0.48932-0.68504,0.48932-1.1744h-2.1529v-0.78342h2.838v0.39145zm4.5017-2.4466h-2.6423v1.8594h2.4466v0.68504h-2.4466v1.8594h2.6423v0.7829h-3.4254v-5.8716h3.4252v0.68504zm3.2295,5.1867h-0.78265v-5.1865h-1.6637v-0.68504h4.1102v0.68504h-1.6637v5.1867zm4.5017,0v-5.8716h0.7829v5.8718h-0.7829zm4.1102,0h-0.7827v-5.1865h-1.6637v-0.68504h4.0124v0.68504h-1.6637v5.1867zm9.297-0.7829c-0.58718,0.58718-1.2722,0.88077-2.153,0.88077-0.88077,0-1.5658-0.29359-2.153-0.88077-0.58718-0.58718-0.88077-1.2722-0.88077-2.153,0-0.88077,0.29359-1.5658,0.88077-2.153,0.58718-0.58718,1.2722-0.88077,2.153-0.88077,0.88077,0,1.5658,0.29359,2.153,0.88077,0.58718,0.58718,0.88077,1.2722,0.88077,2.153,0,0.88077-0.29359,1.5658-0.88077,2.153zm-3.7188-0.48932c0.39145,0.39145,0.97863,0.68504,1.5658,0.68504,0.58718,0,1.1744-0.19573,1.5658-0.68504,0.39145-0.39145,0.68504-0.97863,0.68504-1.6637,0-0.68504-0.19573-1.2722-0.68504-1.6637-0.39145-0.39145-0.97863-0.68504-1.5658-0.68504-0.58718,0-1.1744,0.19573-1.5658,0.68504-0.39145,0.39145-0.68504,0.97863-0.68504,1.6637,0,0.68504,0.19573,1.2722,0.68504,1.6637zm5.6761,1.2722v-5.8716h0.88077l2.838,4.5996v-4.5996h0.7829v5.8718h-0.78275l-3.0342-4.7953v4.7953h-0.68504z" class="st1" stroke="#FFF" stroke-miterlimit="10" stroke-width="0.19572607" fill="#FFF"/>
  <path id="path4072" d="m66.645,21.334c-2.3487,0-4.2081,1.7615-4.2081,4.2081,0,2.3487,1.8594,4.2081,4.2081,4.2081s4.2081-1.7615,4.2081-4.2081c0-2.5444-1.8594-4.2081-4.2081-4.2081zm0,6.6547c-1.2722,0-2.3487-1.0765-2.3487-2.5444s1.0765-2.5444,2.3487-2.5444,2.3487,0.97863,2.3487,2.5444c0,1.4679-1.0765,2.5444-2.3487,2.5444zm-9.1013-6.6547c-2.3487,0-4.2081,1.7615-4.2081,4.2081,0,2.3487,1.8594,4.2081,4.2081,4.2081s4.2081-1.7615,4.2081-4.2081c0-2.5444-1.8594-4.2081-4.2081-4.2081zm0,6.6547c-1.2722,0-2.3487-1.0765-2.3487-2.5444s1.0765-2.5444,2.3487-2.5444,2.3487,0.97863,2.3487,2.5444c0,1.4679-1.0765,2.5444-2.3487,2.5444zm-10.863-5.383v1.7615h4.2081c-0.09786,0.97863-0.48932,1.7615-0.97863,2.2508-0.58718,0.58718-1.5658,1.2722-3.2295,1.2722-2.6423,0-4.5996-2.0551-4.5996-4.6974s2.0551-4.6974,4.5996-4.6974c1.3701,0,2.4466,0.58718,3.2295,1.2722l1.2722-1.2722c-1.0765-0.97863-2.4466-1.7615-4.4038-1.7615-3.5231,0-6.5568,2.9359-6.5568,6.459s3.0338,6.459,6.5568,6.459c1.9573,0,3.3273-0.58718,4.5017-1.8594,1.1744-1.1744,1.5658-2.838,1.5658-4.1102,0-0.39145,0-0.7829-0.09786-1.0765h-6.0675zm44.43,1.3701c-0.39145-0.97863-1.3701-2.6423-3.5231-2.6423s-3.9145,1.6637-3.9145,4.2081c0,2.3487,1.7615,4.2081,4.1102,4.2081,1.8594,0,3.0338-1.1744,3.4252-1.8594l-1.3701-0.97863c-0.48932,0.68504-1.0765,1.1744-2.0551,1.1744-0.97863,0-1.5658-0.39145-2.0551-1.2722l5.5782-2.3487-0.19573-0.48932zm-5.6761,1.3701c0-1.5658,1.2722-2.4466,2.153-2.4466,0.68504,0,1.3701,0.39145,1.5658,0.88077l-3.7188,1.5658zm-4.5996,4.0124h1.8594v-12.232h-1.8591v12.233zm-2.9359-7.144c-0.48932-0.48932-1.2722-0.97863-2.2508-0.97863-2.0551,0-4.0124,1.8594-4.0124,4.2081s1.8594,4.1102,4.0124,4.1102c0.97863,0,1.7615-0.48932,2.153-0.97863h0.09786v0.58718c0,1.5658-0.88077,2.4466-2.2508,2.4466-1.0765,0-1.8594-0.7829-2.0551-1.4679l-1.5658,0.68504c0.48932,1.0765,1.6637,2.4466,3.7188,2.4466,2.153,0,3.9145-1.2722,3.9145-4.306v-7.4376h-1.7615v0.68504zm-2.153,5.7739c-1.2722,0-2.3487-1.0765-2.3487-2.5444s1.0765-2.5444,2.3487-2.5444,2.2508,1.0765,2.2508,2.5444-0.97863,2.5444-2.2508,2.5444zm23.879-10.862h-4.4043v12.233h1.8594v-4.5996h2.5444c2.0551,0,4.0124-1.4679,4.0124-3.8167,0-2.3487-1.9573-3.8167-4.0124-3.8167zm0.09786,5.8718h-2.6423v-4.2081h2.6423c1.3701,0,2.153,1.1744,2.153,2.0551-0.0979,1.0765-0.88077,2.153-2.153,2.153zm11.254-1.7615c-1.3701,0-2.7402,0.58718-3.2295,1.8594l1.6637,0.68504c0.39146-0.68504,0.97863-0.88077,1.6637-0.88077,0.97864,0,1.8594,0.58718,1.9573,1.5658v0.09786c-0.29359-0.19573-1.0765-0.48932-1.8594-0.48932-1.7615,0-3.5231,0.97863-3.5231,2.7402,0,1.6637,1.4679,2.7402,3.0338,2.7402,1.2722,0,1.8594-0.58718,2.3487-1.1744h0.0979v0.97863h1.7615v-4.6974c-0.19572-2.153-1.8594-3.4252-3.9145-3.4252zm-0.19572,6.7525c-0.58718,0-1.468-0.29359-1.468-1.0765,0-0.97863,1.0765-1.2722,1.9573-1.2722,0.78291,0,1.1744,0.19573,1.6637,0.39145-0.19572,1.1744-1.1744,1.9573-2.153,1.9573zm10.276-6.459-2.0551,5.2846h-0.0979l-2.153-5.2846h-1.9573l3.2295,7.4376-1.8594,4.1102h1.8594l4.991-11.548h-1.9573zm-16.441,7.829h1.8594v-12.232h-1.8594v12.233z" class="st2" fill="#FFF"/>
  <path id="path4089" d="M10.178,7.3397c-0.2938,0.2936-0.3917,0.7829-0.3917,1.3701v21.628c0,0.58718,0.19573,1.0765,0.48932,1.3701l0.09786,0.09786,12.134-12.136v-0.19526l-12.33-12.135z" fill="url(#linearGradient3153)" class="st3"/>
  <path id="path4100" d="m26.423,23.781-4.0124-4.0124v-0.29359l4.0124-4.0124,0.09786,0.09786,4.7953,2.7402c1.3701,0.7829,1.3701,2.0551,0,2.838l-4.8932,2.6423z" fill="url(#linearGradient3155)" class="st4"/>
  <path id="path4107" d="M26.521,23.683,22.411,19.573,10.178,31.805c0.48932,0.48932,1.1744,0.48932,2.0551,0.09786l14.288-8.2205" fill="url(#linearGradient3157)" class="st5"/>
  <path id="path4120" d="M26.521,15.462,12.233,7.3397c-0.881-0.4893-1.566-0.3914-2.055,0.0979l12.233,12.135,4.11-4.111z" fill="url(#linearGradient3159)" class="st6"/>
  <path id="path4122" opacity="0.2" style="enable-background:new;" d="m26.423,23.585-14.19,8.0248c-0.7829,0.48932-1.4679,0.39145-1.9573,0l-0.09786,0.09786,0.09786,0.09786c0.48932,0.39145,1.1744,0.48932,1.9573,0l14.19-8.2205z" class="st7"/>
  <path id="path4124" opacity="0.12000002" style="enable-background:new;" d="M10.178,31.61c-0.2938-0.294-0.3917-0.783-0.3917-1.37v0.09786c0,0.58718,0.19573,1.0765,0.48932,1.3701v-0.09786h-0.09786zm21.138-10.765-4.8932,2.7402,0.09786,0.09786,4.7953-2.7402c0.68504-0.39145,0.97863-0.88077,0.97863-1.3701,0,0.48932-0.39145,0.88077-0.97863,1.2722z" class="st8"/>
  <path id="path4126" opacity="0.25" style="enable-background:new;" d="M12.233,7.4376,31.316,18.3c0.58718,0.39145,0.97863,0.7829,0.97863,1.2722,0-0.48932-0.29359-0.97863-0.97863-1.3701l-19.083-10.862c-1.37-0.7829-2.4467-0.1957-2.4467,1.3701v0.097863c0-1.4679,1.0765-2.153,2.4466-1.3701z" class="st9" fill="#FFF"/>
 </g>
 <style id="style4064">.st0{fill:#a6a6a6}.st1{stroke:#fff;stroke-width:.2;stroke-miterlimit:10}.st1,.st2{fill:#fff}.st3{fill:url(#SVGID_1_)}.st4{fill:url(#SVGID_2_)}.st5{fill:url(#SVGID_3_)}.st6{fill:url(#SVGID_4_)}.st7,.st8,.st9{opacity:.2;enable-background:new}.st8,.st9{opacity:.12}.st9{opacity:.25;fill:#fff}</style>
</svg>
