<!-- Created with Inkscape (http://www.inkscape.org/) -->
<svg id="svg2" xmlns:rdf="http://www.w3.org/1999/02/22-rdf-syntax-ns#" xmlns="http://www.w3.org/2000/svg" height="349.3" width="366.98" version="1.1" xmlns:cc="http://creativecommons.org/ns#" xmlns:dc="http://purl.org/dc/elements/1.1/">
 <metadata id="metadata7">
  <rdf:RDF>
   <cc:Work rdf:about="">
    <dc:format>image/svg+xml</dc:format>
    <dc:type rdf:resource="http://purl.org/dc/dcmitype/StillImage"/>
    <dc:title/>
   </cc:Work>
  </rdf:RDF>
 </metadata>
 <circle id="circle2991" d="m 147.53,27.18 c 0,15.0111 -12.1689,27.180001 -27.18,27.180001 C 105.3389,54.360001 93.169998,42.1911 93.169998,27.18 93.169998,12.168901 105.3389,0 120.35,0 c 15.0111,0 27.18,12.168901 27.18,27.18 z" cx="120.35" cy="27.18" transform="matrix(1.2627983,0,0,1.2627983,3.1502146,33.623787)" r="27.18" fill="#b3b3b3"/>
 <path id="path2993" fill="#b3b3b3" d="m137.93,259.81c-24.673,0-44.746,20.073-44.746,44.746s20.073,44.746,44.746,44.746,44.746-20.073,44.746-44.746-20.073-44.746-44.746-44.746z"/>
 <path id="path2997" fill="#b3b3b3" d="m320.26,261.33c-24.181,0-43.854,19.673-43.854,43.854s19.673,43.854,43.854,43.854,43.854-19.673,43.854-43.854-19.673-43.854-43.854-43.854z"/>
 <rect id="rect3129" transform="matrix(0.98734612,0.15858006,-0.15858006,0.98734612,0,0)" height="118.57" width="116.84" stroke-miterlimit="4" y="80.284" x="31.938" stroke-width="0" fill="#b3b3b3"/>
 <g id="g3834" fill="#0071bc" transform="translate(-17.411006,-2.2321803)">
  <path id="rect2995" d="M122.85,24.342,139.48,34.386,140.06,12.276,159.1,32.411,170.29,6.0249,184.14,32.017,199.34,9.496,201.8,32.711,217.61,19.897,205.28,60.126,138.91,63.24z"/>
  <path id="path2998" d="m105.12-23.518c0,3.3125-2.6853,5.9979-5.9979,5.9979-3.3125,0-5.9979-2.6853-5.9979-5.9979,0-3.3125,2.6853-5.9979,5.9979-5.9979,3.3125,0,5.9979,2.6853,5.9979,5.9979z" transform="translate(23.687249,48.29873)"/>
  <path id="path3000" d="m105.12-23.518c0,3.3125-2.6853,5.9979-5.9979,5.9979-3.3125,0-5.9979-2.6853-5.9979-5.9979,0-3.3125,2.6853-5.9979,5.9979-5.9979,3.3125,0,5.9979,2.6853,5.9979,5.9979z" transform="translate(40.73386,35.198094)"/>
  <path id="path3002" d="m105.12-23.518c0,3.3125-2.6853,5.9979-5.9979,5.9979-3.3125,0-5.9979-2.6853-5.9979-5.9979,0-3.3125,2.6853-5.9979,5.9979-5.9979,3.3125,0,5.9979,2.6853,5.9979,5.9979z" transform="translate(71.196784,29.515891)"/>
  <path id="path3004" d="m105.12-23.518c0,3.3125-2.6853,5.9979-5.9979,5.9979-3.3125,0-5.9979-2.6853-5.9979-5.9979,0-3.3125,2.6853-5.9979,5.9979-5.9979,3.3125,0,5.9979,2.6853,5.9979,5.9979z" transform="translate(99.76564,32.356993)"/>
  <path id="path3006" d="m105.12-23.518c0,3.3125-2.6853,5.9979-5.9979,5.9979-3.3125,0-5.9979-2.6853-5.9979-5.9979,0-3.3125,2.6853-5.9979,5.9979-5.9979,3.3125,0,5.9979,2.6853,5.9979,5.9979z" transform="translate(118.54848,43.090044)"/>
 </g>
 <path id="path3816" fill="#b3b3b3" d="m248,185.82,14.085,9.0625,19.375,60.125c-12.176,9.766-20.529,24.1-22.469,40.375-17.465-0.068-34.171,0-51.531,0-0.83-8.038-3.0248-15.661-6.3438-22.656v-0.0312c-4.261-8.984-10.524-17.174-18.5-23.812l0.33483-31.13c-13.851-0.3644-24.452-0.18298-44.772-0.18298h-37.844c-5.109,0-9.25,4.141-9.25,9.25v23.875c-12.424,11.204-20.82,26.802-22.719,44.344-0.21,1.938,0.41775,3.8615,1.7188,5.3125s3.176,2.3125,5.125,2.3125h12.906c0-27.456,22.325-49.812,49.781-49.812s49.812,22.356,49.812,49.812h0.21875c0,3.609,2.9222,6.5312,6.5312,6.5312h68.781c6.07,0.368,9.0938-2.93,9.0938-7.625,0-26.047,21.202-46.156,47.25-46.156,13.49,0,26.348,5.78,35.312,15.875,2.531,2.848,6.901,3.1238,9.75,0.59375,2.851-2.53,3.1238-6.901,0.59375-9.75h-0.0312c-11.582-13.042-28.195-20.531-45.625-20.531-0.702,0-1.3968,0.0385-2.0938,0.0625-9.389-26.751-28.874-38.943-39.969-43.906l-2.4062-7.4375h6.625c2.662,6.083,8.7475,10.312,15.812,10.312,12.527-12.715,11.994-23.219,0-34.469-5.117,0-9.718,2.2392-12.875,5.7812-1.201,1.347-2.2045,2.8855-2.9375,4.5625l-33.63-11.81c-0.18418,10.575-0.10758,2.296-0.10758,21.148z"/>
 <path id="path3818" fill="#b3b3b3" d="m142.04,99.368c-0.1645-0.0144-9.891,16.952-11.5,26.719l-10.281,62.406c-0.896,10.206,3.186,20.133,10.875,26.781,26.353,5.3937,36.027-1.3258,63.534,5.0286,4.3136,0.99649,18.068,55.87,22.171,68.078,3.1392,9.3408,31.822,9.5916,29.562,0-4.389-18.628-22.33-74.919-22.33-74.919-2.2696-7.5642-6.0612-17.216-13.753-17.905,0,0-15.74-0.66701-22.735-3.527-6.7406-2.7559-3.3016-5.3901-5.5742-11.724,2.4376,3.2033,6.3116,5.0624,10.438,4.8438l48.513-1.634c17.218-0.57991,3.6411-19.291-5.2634-20.054l-37.938-3.25-27.75-50.5c-1.2605-1.413-11.062-9.6099-13.094-9.125z"/>
</svg>
